<?xml version="1.0" encoding="utf-8"?>
<!-- Generator: Adobe Illustrator 16.0.0, SVG Export Plug-In . SVG Version: 6.00 Build 0)  -->
<!DOCTYPE svg PUBLIC "-//W3C//DTD SVG 1.1//EN" "http://www.w3.org/Graphics/SVG/1.1/DTD/svg11.dtd">
<svg version="1.1" id="Layer_1" xmlns="http://www.w3.org/2000/svg" xmlns:xlink="http://www.w3.org/1999/xlink" x="0px" y="0px"
	 width="300px" height="200px" viewBox="0 0 300 200" enable-background="new 0 0 300 200" xml:space="preserve">
<g>
	<line fill="none" x1="111.949" y1="43.325" x2="111.949" y2="52.348"/>
	<g>
		<polygon fill="#FFD009" points="237.547,34.468 237.598,120.868 252.598,120.858 252.539,19.461 157.57,19.514 157.58,34.514 		
			"/>
		<polygon fill="#FFD009" points="182.561,157.679 249.318,90.844 239.412,80.949 182.51,137.919 		"/>
		<polygon fill="#FFD009" points="190.799,32.395 180.895,22.502 124.614,78.851 124.663,98.614 		"/>
		
			<rect x="244.827" y="45.126" transform="matrix(0.722 0.6919 -0.6919 0.722 109.6504 -158.7213)" fill="#FFD009" width="15.001" height="23.91"/>
	</g>
	<g>
		<polygon fill="#302D7F" points="56.703,159.448 56.651,73.048 41.651,73.056 41.71,174.454 136.678,174.401 136.668,159.401 		"/>
		<polygon fill="#302D7F" points="111.69,36.235 44.933,103.071 54.838,112.968 111.74,55.997 		"/>
		<polygon fill="#302D7F" points="103.451,161.521 113.356,171.413 169.635,115.063 169.586,95.303 		"/>
		
			<rect x="34.415" y="124.89" transform="matrix(-0.722 -0.6919 0.6919 -0.722 -22.5016 264.6526)" fill="#302D7F" width="15.001" height="23.912"/>
	</g>
</g>
</svg>
